<svg width="32" height="32" viewBox="0 0 32 32" fill="none" xmlns="http://www.w3.org/2000/svg">
<path d="M13.3524 24.3347L4.26473 14.9409H4.10117L4.07601 15.0585L4.09398 24.3347H2V13.04H5.27667L13.2859 21.2937H13.4926L13.4747 13.04H15.5866V24.3347H13.3524Z" fill="black"/>
<path d="M15.6076 29.3333C13.528 29.3333 13.2188 28.1308 13.2188 27.4129C13.2188 26.841 13.6825 26.0483 14.5524 26.0483C15.115 26.0483 15.9508 26.3779 15.9508 27.2846C15.9508 27.6142 15.8627 27.8707 15.6453 28.1683L15.5716 28.2698H15.6974C17.1695 28.2698 18.0664 27.1385 19.0028 24.1047C19.7614 21.6319 20.3293 19.3481 20.829 17.3332L20.8542 17.2335C21.0052 16.6295 21.1454 16.0577 21.282 15.5303L21.3017 15.4502H19.0064L19.3929 14.1729H21.6702L21.8014 13.6687C22.3047 11.7678 23.1261 10.3569 24.3861 9.22923C25.31 8.39015 26.3273 8 27.589 8C29.1726 8 29.9994 9.0297 29.9994 10.0487C29.9994 10.503 29.541 11.3492 28.6657 11.3492C28.1175 11.3492 27.2458 11.0374 27.2458 10.1984C27.2458 10.0077 27.3248 9.80287 27.4111 9.58553C27.4596 9.46082 27.5154 9.32187 27.5531 9.18113L27.5711 9.11343L27.501 9.10096C27.4345 9.09027 27.3806 9.08493 27.3302 9.08493C26.0181 9.08493 25.0781 10.3355 24.28 13.1378L23.9888 14.1729H26.7155L26.2967 15.4502H23.6348L23.6222 15.4983C23.4406 16.1931 23.2519 16.9253 23.0614 17.6681C22.5186 19.7792 21.9596 21.9562 21.4329 23.6308C20.7966 25.6563 19.9213 27.0993 18.7584 28.0453C17.653 28.9717 16.7704 29.3315 15.6076 29.3315V29.3333Z" fill="black"/>
</svg>
