<svg width="96" height="32" viewBox="0 0 96 32" fill="none" xmlns="http://www.w3.org/2000/svg">
<g clip-path="url(#clip0_1_406)">
<path d="M16.8744 24.4959L3.36735 10.406H3.12125L3.0865 10.5826L3.11256 24.4959H0V7.55322H4.87007L16.776 19.9344H17.0829L17.0568 7.55322H20.1954V24.4959H16.8744Z" fill="black"/>
<path d="M41.1855 31.9971C38.0961 31.9971 37.6328 30.1928 37.6328 29.1183C37.6328 28.261 38.3219 27.0707 39.6162 27.0707C40.4529 27.0707 41.6951 27.5659 41.6951 28.9242C41.6951 29.4195 41.5648 29.8018 41.2405 30.2507L41.1305 30.4013H41.3187C43.5076 30.4013 44.8395 28.7041 46.2322 24.1542C47.3614 20.4442 48.2039 17.018 48.9452 13.9973L48.9828 13.8467C49.2057 12.9402 49.4171 12.0829 49.6198 11.2922L49.6487 11.1735H46.238L46.8112 9.25912H50.196L50.39 8.50321C51.1399 5.65336 52.3588 3.53625 54.2322 1.84487C55.6075 0.587926 57.1189 0 58.9922 0C61.3433 0 62.5767 1.54657 62.5767 3.07286C62.5767 3.75346 61.8963 5.02199 60.5963 5.02199C59.7797 5.02199 58.4855 4.55281 58.4855 3.29586C58.4855 3.00914 58.6042 2.70215 58.7316 2.37488C58.804 2.18952 58.8851 1.9781 58.943 1.76957L58.9719 1.66821L58.8677 1.65083C58.7693 1.63345 58.6882 1.62476 58.6129 1.62476C56.6643 1.62476 55.2658 3.50149 54.0816 7.70676L53.6502 9.25912H57.7037L57.0812 11.1735H53.1261L53.1087 11.2459C52.8366 12.2885 52.5586 13.3862 52.2749 14.5012C51.4699 17.6668 50.639 20.9337 49.8543 23.4476C48.9075 26.4857 47.6075 28.652 45.8789 30.0711C44.2372 31.4613 42.9227 32 41.1942 32L41.1855 31.9971Z" fill="black"/>
<path d="M30.7671 24.8957C29.2412 24.8957 27.9614 24.6408 26.9683 24.1427C25.9752 23.6446 25.2427 22.9697 24.7968 22.1327C24.3509 21.2957 24.1221 20.3661 24.125 19.3756C24.125 18.2663 24.3451 17.3453 24.7765 16.6387C25.205 15.932 25.8333 15.3962 26.6382 15.0429C27.4461 14.6895 28.4276 14.51 29.5597 14.5129L37.7045 14.5216V14.1364C37.7045 13.1603 37.5279 12.3349 37.1746 11.692C36.8214 11.0461 36.2597 10.5654 35.5069 10.2642C34.7541 9.96585 33.7436 9.81235 32.4985 9.81235C30.8713 9.81235 29.6697 10.0701 28.9256 10.5827C28.1815 11.0954 27.7037 11.8831 27.6661 12.6535L24.4377 12.4797C24.458 11.3966 24.8199 10.2613 25.4395 9.34606C26.0128 8.49748 26.9017 7.82267 28.0744 7.339C29.2528 6.85534 30.7584 6.61206 32.5564 6.61206C34.3545 6.61206 36.0222 6.94512 37.3049 7.59676C38.5876 8.24841 39.5575 9.17229 40.1945 10.3395C40.8315 11.5095 41.1529 12.9431 41.15 14.5998L41.1413 24.5047H37.6987L37.7942 22.4629C37.8174 21.8692 37.8348 21.316 37.8521 20.7947L37.6668 20.7628C37.4294 21.5332 37.082 22.2109 36.6332 22.7815C36.1033 23.4534 35.3534 23.9776 34.4037 24.3425C33.4511 24.7075 32.2293 24.8928 30.7758 24.8899L30.7671 24.8957ZM30.4225 17.244C29.6668 17.244 29.0588 17.2903 28.61 17.3859C28.1612 17.4815 27.8225 17.6668 27.6024 17.9304C27.3824 18.1968 27.2694 18.6226 27.2694 19.1989C27.2694 19.8969 27.5677 20.4935 28.1612 20.9743C28.7519 21.455 29.8579 21.6983 31.4504 21.6983C32.8054 21.6983 33.9694 21.4956 34.9104 21.093C35.8514 20.6875 36.5608 20.1373 37.0154 19.4596C37.4699 18.779 37.7016 18.0694 37.7016 17.3511V17.2556L37.606 17.2498L30.4254 17.2411L30.4225 17.244Z" fill="black"/>
<path d="M66.8822 24.8955C65.3563 24.8955 64.0766 24.6436 63.0806 24.1483C62.0845 23.6531 61.3549 22.9754 60.909 22.1413C60.4602 21.3043 60.2344 20.3775 60.2344 19.3841C60.2344 18.2748 60.4515 17.3539 60.8829 16.6472C61.3115 15.9405 61.9369 15.4018 62.7418 15.0485C63.5496 14.6951 64.5312 14.5156 65.6633 14.5156H73.808V14.1304C73.808 13.1544 73.6285 12.3319 73.2753 11.686C72.922 11.0402 72.3603 10.5594 71.6046 10.2611C70.8518 9.96277 69.8413 9.81217 68.5934 9.81217C66.9662 9.81217 65.7646 10.0728 65.0205 10.5855C64.2764 11.101 63.8015 11.8858 63.7639 12.6591L60.5355 12.4911C60.5558 11.408 60.9148 10.2698 61.5315 9.35747C62.1048 8.50889 62.9908 7.83118 64.1663 7.34752C65.3419 6.86385 66.8504 6.61768 68.6484 6.61768C70.4465 6.61768 72.1142 6.94784 73.3998 7.59659C74.6824 8.24823 75.6553 9.16922 76.2923 10.3364C76.9293 11.5064 77.2507 12.9401 77.2507 14.5938V24.4988H73.808L73.9007 22.4627C73.921 21.869 73.9412 21.3158 73.9557 20.7945L73.7704 20.7627C73.533 21.5331 73.1855 22.2108 72.7367 22.7813C72.2098 23.4532 71.4599 23.9803 70.5102 24.3453C69.5576 24.7102 68.3386 24.8984 66.8822 24.8984V24.8955ZM66.529 17.2438C65.7733 17.2438 65.1652 17.293 64.7194 17.3886C64.2706 17.4842 63.9318 17.6695 63.7118 17.936C63.4917 18.2024 63.3788 18.6282 63.3788 19.2045C63.3788 19.9025 63.6799 20.4991 64.2706 20.9799C64.8612 21.4578 65.9673 21.701 67.5597 21.701C68.9148 21.701 70.0787 21.4954 71.0198 21.0899C71.9608 20.6845 72.6672 20.1342 73.1218 19.4536C73.5764 18.773 73.8051 18.0634 73.8051 17.3452V17.2496L73.7096 17.2438H66.529Z" fill="black"/>
<path d="M81.3164 24.4959V7.55322H84.7011V21.7185H96.0019V24.4959H81.3164Z" fill="black"/>
</g>
<defs>
<clipPath id="clip0_1_406">
<rect width="96" height="32" fill="white"/>
</clipPath>
</defs>
</svg>
