<svg width="42" height="32" viewBox="0 0 42 32" fill="none" xmlns="http://www.w3.org/2000/svg">
<g clip-path="url(#clip0_1_412)">
<path d="M17.0286 24.5018L3.3971 10.4111H3.15175L3.11401 10.5875L3.14097 24.5018H0V7.55981H4.91501L16.9289 19.9403H17.2389L17.212 7.55981H20.3799V24.5018H17.0286Z" fill="black"/>
<path d="M20.4113 32C17.2919 32 16.8281 30.1962 16.8281 29.1193C16.8281 28.2615 17.5237 27.0724 18.8286 27.0724C19.6725 27.0724 20.9262 27.5668 20.9262 28.9269C20.9262 29.4213 20.7941 29.8061 20.4679 30.2524L20.3573 30.4047H20.5461C22.7542 30.4047 24.0995 28.7078 25.5042 24.157C26.642 20.4479 27.4939 17.0221 28.2435 13.9998L28.2812 13.8502C28.5077 12.9443 28.718 12.0865 28.9229 11.2955L28.9525 11.1753H25.5096L26.0893 9.25929H29.5052L29.7021 8.50305C30.457 5.65177 31.6891 3.53536 33.5791 1.84384C34.9649 0.585219 36.4909 0 38.3835 0C40.7588 0 41.999 1.54455 41.999 3.07307C41.999 3.75449 41.3115 5.0238 39.9985 5.0238C39.1762 5.0238 37.8686 4.55616 37.8686 3.29754C37.8686 3.01161 37.9872 2.7043 38.1166 2.37829C38.1894 2.19123 38.273 1.9828 38.3296 1.77169L38.3566 1.67015L38.2514 1.65144C38.1517 1.63541 38.0708 1.62739 37.9953 1.62739C36.0271 1.62739 34.6171 3.5033 33.42 7.70672L32.9832 9.25929H37.0732L36.445 11.1753H32.4521L32.4332 11.2474C32.1609 12.2896 31.8778 13.3879 31.592 14.5022C30.7778 17.6688 29.9393 20.9343 29.1493 23.4462C28.1949 26.4845 26.8819 28.649 25.1375 30.068C23.4794 31.4575 22.1556 31.9973 20.4113 31.9973V32Z" fill="black"/>
</g>
<defs>
<clipPath id="clip0_1_412">
<rect width="42" height="32" fill="white"/>
</clipPath>
</defs>
</svg>
