<svg width="24" height="24" viewBox="0 0 24 24" fill="none" xmlns="http://www.w3.org/2000/svg">
<path d="M3 11.5851V17.4755C3 18.7092 3 19.3265 3.24524 19.7978C3.46095 20.2123 3.80491 20.5489 4.22827 20.7601C4.7091 21 5.33887 21 6.59652 21H17.4035C18.6611 21 19.29 21 19.7708 20.7601C20.1942 20.5489 20.5393 20.2123 20.755 19.7978C21 19.327 21 18.7107 21 17.4794V11.5851C21 10.9966 20.9995 10.7022 20.9264 10.4283C20.8616 10.1856 20.7553 9.95593 20.6114 9.74839C20.449 9.5142 20.2232 9.31999 19.7709 8.93244L14.3708 4.30642C13.5309 3.58687 13.1109 3.22728 12.6383 3.09043C12.2218 2.96986 11.7779 2.96986 11.3615 3.09043C10.8892 3.22718 10.4698 3.58643 9.63116 4.30489L4.22937 8.93244C3.77697 9.31999 3.5513 9.5142 3.38892 9.74839C3.24502 9.95593 3.13787 10.1856 3.07309 10.4283C3 10.7022 3 10.9966 3 11.5851Z" stroke="#444D4A" stroke-width="2" stroke-linecap="round" stroke-linejoin="round"/>
</svg>
