<svg width="24" height="24" viewBox="0 0 24 24" fill="none" xmlns="http://www.w3.org/2000/svg">
<path fill-rule="evenodd" clip-rule="evenodd" d="M14.0092 19.003L14.0152 17C14.0152 16.7341 14.1209 16.4791 14.3089 16.2911C14.4969 16.1031 14.7519 15.9975 15.0177 15.9975C15.2836 15.9975 15.5386 16.1031 15.7266 16.2911C15.9146 16.4791 16.0202 16.7341 16.0202 17V18.977C16.0202 19.458 16.0202 19.699 16.1742 19.847C16.3292 19.994 16.5642 19.984 17.0372 19.964C18.9002 19.885 20.0452 19.634 20.8512 18.828C21.6612 18.022 21.9122 16.877 21.9912 15.011C22.0062 14.641 22.0142 14.455 21.9452 14.332C21.8752 14.209 21.6002 14.055 21.0482 13.746C20.7373 13.5727 20.4783 13.3194 20.298 13.0125C20.1177 12.7055 20.0226 12.356 20.0226 12C20.0226 11.644 20.1177 11.2945 20.298 10.9875C20.4783 10.6806 20.7373 10.4273 21.0482 10.254C21.6002 9.946 21.8762 9.791 21.9452 9.668C22.0142 9.545 22.0062 9.36 21.9902 8.989C21.9122 7.123 21.6602 5.979 20.8512 5.172C19.9742 4.296 18.6962 4.075 16.5292 4.019C16.4629 4.01726 16.3968 4.02884 16.335 4.05303C16.2732 4.07723 16.2169 4.11357 16.1694 4.15989C16.1218 4.20622 16.0841 4.26159 16.0583 4.32275C16.0325 4.38392 16.0192 4.44962 16.0192 4.516V7C16.0192 7.26588 15.9136 7.52087 15.7256 7.70887C15.5376 7.89688 15.2826 8.0025 15.0167 8.0025C14.7509 8.0025 14.4959 7.89688 14.3079 7.70887C14.1199 7.52087 14.0142 7.26588 14.0142 7L14.0072 4.499C14.007 4.36657 13.9542 4.23964 13.8604 4.14609C13.7667 4.05254 13.6397 4 13.5072 4H9.99523C6.21523 4 4.32523 4 3.15023 5.172C2.34023 5.978 2.08923 7.123 2.01023 8.989C1.99523 9.359 1.98723 9.545 2.05623 9.668C2.12623 9.791 2.40123 9.946 2.95323 10.254C3.26416 10.4273 3.52317 10.6806 3.70347 10.9875C3.88378 11.2945 3.97884 11.644 3.97884 12C3.97884 12.356 3.88378 12.7055 3.70347 13.0125C3.52317 13.3194 3.26416 13.5727 2.95323 13.746C2.40123 14.055 2.12523 14.209 2.05623 14.332C1.98723 14.455 1.99523 14.64 2.01123 15.01C2.08923 16.877 2.34123 18.022 3.15023 18.828C4.32523 20 6.21523 20 9.99623 20H13.0062C13.4782 20 13.7132 20 13.8602 19.854C14.0072 19.708 14.0082 19.474 14.0092 19.003ZM16.0192 13V11C16.0192 10.7341 15.9136 10.4791 15.7256 10.2911C15.5376 10.1031 15.2826 9.9975 15.0167 9.9975C14.7509 9.9975 14.4959 10.1031 14.3079 10.2911C14.1199 10.4791 14.0142 10.7341 14.0142 11V13C14.0142 13.266 14.1199 13.5211 14.308 13.7092C14.4961 13.8973 14.7512 14.003 15.0172 14.003C15.2832 14.003 15.5384 13.8973 15.7265 13.7092C15.9146 13.5211 16.0192 13.266 16.0192 13Z" fill="#C9310D"/>
</svg>
